{"glyphs":{"0":{"ha":1075,"x_min":28,"x_max":1047,"o":"m 785 783 q 972 698 899 783 q 1031 500 1046 613 l 996 257 q 894 74 979 147 q 699 0 810 0 l 289 0 q 102 85 176 0 q 44 283 28 171 l 79 526 q 179 710 94 636 q 376 783 264 783 l 785 783 m 689 532 q 658 638 697 592 q 557 683 618 683 q 469 651 507 683 q 425 569 432 618 l 376 231 q 408 125 368 171 q 508 79 447 79 q 595 112 557 79 q 640 193 633 144 l 689 532 z "},"1":{"ha":901,"x_min":13,"x_max":840,"o":"m 743 243 l 839 243 l 804 0 l 13 0 l 47 243 l 271 243 l 308 510 q 78 467 201 476 l 110 694 q 145 758 115 732 q 214 783 175 783 l 576 783 q 656 747 625 783 q 679 664 686 711 l 618 243 l 743 243 z "},"2":{"ha":1085,"x_min":10,"x_max":1057,"o":"m 500 335 q 424 306 457 335 q 384 233 390 276 q 396 153 378 189 q 457 92 417 111 q 542 82 497 72 q 612 122 583 90 q 647 196 640 153 l 654 243 l 1000 243 l 965 0 l 10 0 l 38 190 q 143 379 54 306 q 338 449 228 449 l 601 449 q 664 472 638 449 q 694 529 690 494 q 683 610 701 574 q 634 663 665 643 q 565 683 603 683 q 477 651 515 685 q 432 567 439 617 l 428 539 l 88 539 q 186 710 107 642 q 382 783 271 783 l 882 783 q 982 753 939 783 q 1039 682 1021 725 q 1050 593 1057 639 q 944 404 1033 478 q 750 335 860 335 l 500 335 z "},"3":{"ha":1068,"x_min":32,"x_max":1035,"o":"m 931 732 q 1010 628 985 690 q 1025 500 1035 567 l 1022 486 q 980 411 1015 442 q 900 381 944 381 q 968 353 942 381 q 994 286 994 326 l 990 257 q 889 74 974 147 q 693 0 804 0 l 288 0 q 129 54 196 0 q 56 149 81 93 q 36 264 32 204 l 382 264 l 381 254 q 393 174 374 210 q 441 119 410 139 q 510 100 472 100 q 598 133 560 99 q 644 217 636 167 l 664 356 l 449 356 q 414 372 428 356 q 403 408 400 388 q 419 438 406 426 q 449 449 432 449 l 678 449 l 692 550 q 679 631 699 594 q 631 684 663 664 q 563 704 600 704 q 474 672 513 706 q 428 588 436 638 l 421 539 l 75 539 q 174 710 94 642 q 371 783 258 783 l 775 783 q 931 732 864 783 z "},"4":{"ha":1193,"x_min":51,"x_max":1153,"o":"m 813 783 l 946 783 q 1026 747 994 783 q 1050 664 1057 711 l 1004 346 l 1110 346 q 1140 332 1128 346 q 1150 300 1153 318 q 1137 275 1149 285 q 1110 265 1125 265 l 993 265 l 968 90 q 933 26 963 51 q 864 0 903 0 l 729 0 q 651 36 682 0 q 626 119 619 72 l 647 265 l 293 265 q 121 343 189 265 q 67 525 53 421 l 92 713 q 129 763 101 743 q 190 783 157 783 l 364 783 q 410 763 392 783 q 424 715 428 742 l 403 543 q 447 403 394 464 q 579 343 500 343 l 658 343 l 708 694 q 744 758 714 732 q 813 783 774 783 z "},"5":{"ha":1081,"x_min":44,"x_max":1069,"o":"m 685 540 l 686 550 q 672 633 692 596 q 624 685 656 667 q 554 704 592 704 q 468 672 506 704 q 422 590 431 639 l 403 449 l 917 449 q 984 419 957 449 q 1008 349 1011 389 q 996 256 1006 324 q 896 74 979 146 q 699 0 811 0 l 294 0 q 153 40 213 0 q 70 133 94 79 q 50 243 46 188 l 375 243 l 374 233 q 386 150 367 188 q 436 98 404 117 q 504 79 468 79 q 592 112 554 79 q 636 193 629 144 l 657 335 l 51 335 l 114 783 l 1068 783 l 1033 539 q 685 540 1032 540 z "},"6":{"ha":1072,"x_min":33,"x_max":1036,"o":"m 688 521 l 688 529 q 675 613 694 575 q 625 665 657 646 q 557 683 593 683 q 469 651 507 683 q 425 569 432 618 l 404 428 l 914 428 q 983 397 956 428 q 1004 324 1011 365 l 996 257 q 894 74 979 147 q 699 0 810 0 l 293 0 q 138 51 204 0 q 60 155 85 93 q 44 283 35 217 l 79 526 q 179 710 94 636 q 376 783 264 783 l 782 783 q 931 736 865 783 q 1009 641 982 699 q 1032 521 1036 583 l 688 521 m 517 335 l 392 335 l 376 231 q 408 125 368 171 q 508 79 447 79 q 595 112 557 79 q 640 193 633 144 q 610 292 647 249 q 517 335 574 335 z "},"7":{"ha":1058,"x_min":63,"x_max":1044,"o":"m 88 783 l 1043 783 l 943 90 q 908 26 938 51 q 840 0 879 0 l 711 0 q 633 36 664 0 q 608 119 601 72 l 669 550 q 657 631 676 594 q 609 685 640 665 q 540 704 578 704 q 452 672 490 706 q 406 588 414 638 l 400 539 l 174 539 q 95 576 126 539 q 71 660 64 613 l 88 783 z "},"8":{"ha":1074,"x_min":35,"x_max":1040,"o":"m 936 732 q 1015 628 990 690 q 1031 500 1040 567 l 1028 486 q 985 411 1021 442 q 906 381 950 381 q 974 353 947 381 q 999 286 1000 326 l 996 257 q 894 74 979 147 q 699 0 810 0 l 293 0 q 139 50 206 0 q 60 151 86 90 q 43 276 35 213 q 87 351 51 321 q 165 381 122 381 q 97 408 124 381 q 72 478 71 436 l 79 526 q 179 710 94 636 q 376 783 264 783 l 781 783 q 936 732 869 783 m 557 683 q 469 651 507 683 q 425 569 432 618 l 421 539 q 443 462 414 496 q 518 428 472 428 l 674 428 l 689 531 q 663 629 696 585 q 576 682 631 674 q 557 683 567 683 m 508 79 q 595 112 557 79 q 640 193 633 144 l 644 222 q 621 301 650 267 q 547 335 592 335 l 392 335 l 376 232 q 401 133 368 178 q 489 81 435 88 q 508 79 499 79 z "},"9":{"ha":1072,"x_min":38,"x_max":1038,"o":"m 933 732 q 1011 628 986 690 q 1028 500 1036 567 l 993 257 q 892 74 976 147 q 696 0 807 0 l 290 0 q 135 51 201 0 q 39 240 42 124 l 375 240 l 374 233 q 388 150 368 188 q 436 98 404 117 q 506 79 468 79 q 592 112 554 79 q 638 193 631 144 l 657 335 l 154 335 q 85 366 113 335 q 64 439 57 397 l 76 526 q 176 710 92 636 q 374 783 261 783 l 778 783 q 933 732 867 783 m 686 532 q 655 638 694 592 q 554 683 615 683 q 467 651 504 683 q 422 569 429 618 q 451 471 414 514 q 544 428 489 428 l 671 428 l 686 532 z "},"\u000b":{"ha":732,"x_min":69,"x_max":663,"o":"m 69 972 l 663 972 l 663 0 l 69 0 l 69 972 m 108 944 l 365 515 l 624 944 l 108 944 m 349 486 l 99 903 l 99 68 l 349 486 m 367 457 l 110 29 l 624 29 l 367 457 m 383 486 l 635 65 l 635 906 l 383 486 z "},"\u0000":{"ha":0,"x_min":0,"x_max":0,"o":""},"\n":{"ha":0,"x_min":0,"x_max":0,"o":""},"\r":{"ha":0,"x_min":0,"x_max":0,"o":""}," ":{"ha":515,"x_min":0,"x_max":0,"o":""},"!":{"ha":478,"x_min":18,"x_max":457,"o":"m 269 210 q 345 175 315 210 q 368 94 375 140 q 331 27 363 54 q 258 0 300 0 l 125 0 q 49 35 79 0 q 25 115 19 69 q 63 183 32 156 q 135 210 94 210 l 269 210 m 340 783 q 424 745 390 783 q 450 657 457 707 l 411 389 q 376 324 406 350 q 307 299 346 299 l 179 299 q 96 337 129 299 q 69 425 63 375 l 108 693 q 144 758 114 732 q 213 783 174 783 l 340 783 z "},"\"":{"ha":572,"x_min":61,"x_max":576,"o":"m 469 785 q 547 750 517 785 q 569 669 576 715 q 547 616 565 639 q 500 582 528 593 q 371 486 432 544 l 385 575 l 329 575 q 214 486 268 539 l 226 575 l 168 575 q 92 610 122 575 q 68 690 63 644 q 106 758 75 731 q 178 785 138 785 l 313 785 q 324 785 318 785 q 336 785 331 785 l 469 785 z "},"#":{"ha":857,"x_min":31,"x_max":829,"o":"m 726 658 q 799 622 771 657 q 822 543 828 588 q 784 476 815 503 q 713 449 753 449 l 696 449 l 683 360 q 756 323 728 357 q 778 244 785 289 q 741 177 772 204 q 668 150 710 150 l 654 150 l 646 90 q 611 26 640 51 q 543 0 582 0 q 465 36 496 0 q 440 118 433 72 l 444 150 l 343 150 l 335 90 q 300 26 329 51 q 232 0 271 0 q 153 36 185 0 q 129 118 122 72 l 133 150 q 60 185 89 151 q 38 264 31 219 q 74 333 43 306 q 147 360 106 360 l 163 360 l 175 449 q 103 485 131 451 q 81 564 75 519 q 119 631 88 604 q 190 658 150 658 l 204 658 l 213 718 q 248 783 218 757 q 317 808 278 808 q 395 772 364 808 q 419 689 426 736 l 415 658 l 515 658 l 524 718 q 559 783 529 757 q 628 808 589 808 q 706 772 675 808 q 731 689 738 736 l 726 658 m 474 360 l 486 449 l 385 449 l 374 360 l 474 360 z "},"$":{"ha":1028,"x_min":19,"x_max":1011,"o":"m 979 608 q 994 539 1011 579 q 935 497 979 497 l 708 497 q 682 544 700 524 q 583 589 643 589 l 557 589 q 472 557 508 589 q 428 478 435 525 l 419 417 l 501 417 l 508 465 q 525 496 511 483 q 557 508 539 508 l 583 508 q 620 491 606 508 q 632 451 635 474 l 625 404 l 958 404 q 958 403 958 404 q 958 401 958 403 q 855 213 942 288 q 653 138 768 138 l 654 138 l 647 92 q 611 26 642 53 q 540 0 581 0 l 278 0 l 299 138 l 210 138 q 51 199 118 138 q 36 269 19 228 q 96 311 51 311 l 322 311 q 349 264 331 285 q 447 218 388 218 l 474 218 q 558 250 521 218 q 603 331 596 282 l 611 392 l 522 392 l 515 342 q 499 312 513 324 q 467 300 485 300 l 447 300 q 410 317 425 300 q 399 356 394 333 l 406 404 l 72 404 q 72 406 72 406 q 175 595 88 519 q 378 671 263 671 l 374 671 l 381 715 q 417 781 386 754 q 486 808 447 808 l 749 808 l 729 671 l 821 671 q 979 608 913 671 z "},"&":{"ha":1203,"x_min":31,"x_max":1183,"o":"m 1136 524 q 1169 510 1156 524 q 1182 476 1182 496 q 1167 445 1181 458 q 1135 432 1153 432 l 1019 432 l 994 257 q 894 73 979 146 q 697 0 810 0 l 522 0 l 504 -129 q 491 -156 503 -144 q 463 -167 479 -167 q 431 -152 443 -167 q 421 -118 418 -137 l 438 0 l 289 0 q 164 33 222 0 q 72 126 106 67 q 44 286 32 199 l 47 313 q 85 367 53 349 q 140 381 111 381 l 139 381 q 86 406 107 381 q 69 464 65 432 l 78 525 q 179 710 94 636 q 375 783 264 783 l 544 783 l 576 1004 q 593 1031 579 1021 q 625 1040 607 1042 q 652 1023 642 1038 q 660 990 663 1008 l 614 671 q 557 683 586 683 q 469 651 507 683 q 425 569 432 618 l 404 426 l 674 426 l 688 524 l 1136 524 m 639 193 l 660 336 l 392 336 l 376 233 q 390 150 369 188 q 439 97 407 117 q 508 78 471 78 q 594 110 557 78 q 639 193 632 143 z "},"'":{"ha":414,"x_min":61,"x_max":419,"o":"m 313 785 q 388 750 358 785 q 411 669 418 715 q 388 616 407 639 q 342 582 369 593 q 214 486 274 544 l 226 575 l 168 575 q 92 610 122 575 q 68 690 63 644 q 106 758 75 731 q 178 785 138 785 l 313 785 z "},"(":{"ha":556,"x_min":28,"x_max":560,"o":"m 560 783 l 546 694 l 508 694 q 421 662 458 694 q 376 581 383 629 l 328 242 q 359 135 319 181 q 460 89 399 89 l 447 0 l 289 0 q 102 85 176 0 q 44 283 28 171 l 79 526 q 179 710 94 636 q 376 783 264 783 l 560 783 z "},")":{"ha":557,"x_min":-4,"x_max":528,"o":"m -4 0 l 8 89 l 47 89 q 135 122 97 89 q 179 203 172 154 l 228 542 q 197 649 236 603 q 96 694 157 694 l 108 783 l 267 783 q 453 698 379 783 q 511 500 528 613 l 476 257 q 376 74 461 147 q 179 0 292 0 l -4 0 z "},"+":{"ha":822,"x_min":32,"x_max":786,"o":"m 679 476 q 756 442 725 476 q 779 361 786 407 q 742 294 774 321 q 669 267 711 267 l 499 267 l 476 101 q 431 24 469 54 q 347 1 392 -6 q 284 38 307 7 q 267 111 261 69 l 289 267 l 139 267 q 62 301 92 267 q 39 382 32 336 q 76 449 44 422 q 149 476 107 476 l 318 476 l 342 642 q 388 718 349 688 q 471 742 426 749 q 534 705 511 736 q 550 632 557 674 l 529 476 l 679 476 z "},",":{"ha":432,"x_min":4,"x_max":361,"o":"m 254 208 q 331 174 300 208 q 354 93 361 139 q 331 40 350 63 q 285 6 313 17 q 156 -90 215 -32 l 168 -1 l 111 -1 q 35 33 65 -1 q 11 114 4 68 q 48 181 17 154 q 121 208 79 208 l 254 208 z "},"-":{"ha":825,"x_min":32,"x_max":788,"o":"m 681 474 q 756 439 726 474 q 779 358 786 404 q 742 291 774 318 q 669 264 711 264 l 139 264 q 63 299 93 264 q 39 379 33 333 q 76 447 44 419 q 149 474 107 474 l 681 474 z "},".":{"ha":432,"x_min":4,"x_max":363,"o":"m 11 115 q 49 183 18 156 q 121 210 81 210 l 256 210 q 331 175 301 210 q 354 94 361 140 q 317 27 349 54 q 244 0 286 0 l 111 0 q 35 35 65 0 q 11 115 6 69 z "},"/":{"ha":586,"x_min":-1,"x_max":589,"o":"m 469 783 q 556 736 525 783 q 565 638 588 689 l 318 64 q 280 17 306 35 q 222 0 254 0 l 118 0 q 31 47 61 0 q 22 146 0 94 l 269 719 q 308 766 282 749 q 365 783 333 783 l 469 783 z "},":":{"ha":458,"x_min":13,"x_max":414,"o":"m 264 210 q 340 175 310 210 q 363 94 369 140 q 326 27 357 54 q 253 0 294 0 l 119 0 q 44 35 74 0 q 19 115 14 69 q 58 183 26 156 q 129 210 89 210 l 264 210 m 307 508 q 383 474 353 508 q 407 394 414 439 q 370 326 401 353 q 297 299 339 299 l 164 299 q 88 333 118 299 q 64 414 57 368 q 101 481 69 454 q 174 508 132 508 l 307 508 z "},";":{"ha":458,"x_min":13,"x_max":414,"o":"m 307 507 q 383 472 353 507 q 406 392 413 438 q 369 324 400 351 q 296 297 338 297 l 163 297 q 87 332 117 297 q 63 413 57 367 q 101 480 69 453 q 172 507 132 507 l 307 507 m 263 208 q 339 174 308 208 q 363 93 369 139 q 340 40 358 63 q 293 6 321 17 q 164 -90 224 -32 l 176 -1 l 119 -1 q 43 33 74 -1 q 19 114 13 68 q 56 181 25 154 q 129 208 88 208 l 263 208 z "},"=":{"ha":856,"x_min":13,"x_max":811,"o":"m 704 508 q 781 474 750 508 q 804 394 811 439 q 767 326 799 353 q 694 299 736 299 l 164 299 q 88 333 118 299 q 64 414 57 368 q 101 481 69 454 q 174 508 132 508 l 704 508 m 661 210 q 737 175 707 210 q 761 94 767 140 q 723 27 754 54 q 651 0 692 0 l 119 0 q 44 35 74 0 q 19 115 14 69 q 58 183 26 156 q 129 210 89 210 l 661 210 z "},"?":{"ha":1036,"x_min":51,"x_max":1028,"o":"m 849 783 q 976 725 926 783 q 1015 590 1026 667 q 910 404 997 478 q 715 335 825 335 l 667 335 l 661 299 l 443 299 q 360 337 393 299 q 333 425 326 375 l 338 449 l 565 449 q 628 473 600 449 q 660 531 656 497 q 647 610 665 574 q 585 671 626 651 q 499 681 543 690 q 431 640 458 671 q 396 567 403 608 l 393 539 l 53 539 q 148 714 68 644 q 333 783 228 783 l 849 783 m 532 210 q 609 175 579 210 q 632 94 639 140 q 595 27 626 54 q 522 0 564 0 l 389 0 q 313 35 343 0 q 289 115 282 69 q 326 183 294 156 q 399 210 357 210 l 532 210 z "},"@":{"ha":1075,"x_min":33,"x_max":1039,"o":"m 1024 601 q 1031 500 1038 551 l 996 257 q 894 74 979 147 q 699 0 810 0 l 293 0 q 138 51 204 0 q 60 155 85 93 q 44 283 35 217 l 79 526 q 179 710 94 636 q 376 783 264 783 l 785 783 q 891 760 840 783 q 976 693 942 736 l 376 693 q 238 642 297 693 q 168 513 179 590 l 133 269 q 144 186 128 226 q 199 119 161 146 q 292 90 239 90 l 539 90 q 591 106 568 93 q 619 139 614 119 l 622 150 q 635 108 619 126 q 674 90 650 90 l 699 90 q 835 142 776 90 q 906 271 894 193 l 906 275 l 814 275 q 776 211 806 236 q 719 183 750 189 q 706 183 714 183 q 663 203 679 183 q 649 249 646 222 q 653 274 650 256 q 658 315 656 293 q 665 360 661 336 q 634 465 674 419 q 533 511 594 511 q 447 478 485 511 q 401 397 408 446 l 379 243 q 385 183 375 213 l 356 183 l 356 182 l 290 182 q 254 192 269 182 q 224 257 218 215 l 258 499 q 269 536 261 519 q 314 584 285 567 q 376 601 343 601 l 1024 601 m 500 183 q 476 201 485 188 q 469 229 467 214 l 492 382 q 505 409 493 399 q 533 421 517 419 q 565 406 553 421 q 575 372 578 392 l 553 218 q 522 183 549 190 l 500 183 m 781 351 l 775 310 q 782 301 774 301 q 792 310 790 301 l 797 351 q 824 401 801 378 q 881 428 846 425 q 889 436 888 429 q 883 443 890 443 q 833 469 849 446 q 821 521 817 493 l 826 563 q 820 571 828 571 q 811 563 813 571 l 804 521 q 779 469 801 493 q 721 443 757 446 q 713 436 714 443 q 719 428 713 429 q 769 401 754 425 q 781 351 785 378 z "},"A":{"ha":1058,"x_min":6,"x_max":1040,"o":"m 778 783 q 965 698 890 783 q 1022 500 1039 613 l 964 90 q 928 26 958 51 q 860 0 899 0 l 725 0 q 647 36 678 0 q 622 119 615 72 l 654 340 l 385 340 l 349 90 q 314 26 343 51 q 246 0 285 0 l 117 0 q 38 36 69 0 q 13 119 6 72 l 64 472 q 185 695 83 607 q 422 783 288 783 l 778 783 m 681 532 q 650 638 690 592 q 550 683 610 683 q 463 651 500 683 q 418 569 425 618 l 399 435 l 667 435 l 681 532 z "},"B":{"ha":1058,"x_min":15,"x_max":1043,"o":"m 938 732 q 1017 628 992 690 q 1032 500 1042 567 l 1031 486 q 987 411 1022 442 q 907 381 951 381 q 976 353 949 381 q 1001 286 1003 326 l 997 257 q 897 74 982 147 q 700 0 813 0 l 126 0 q 49 35 79 0 q 22 122 15 71 l 118 783 l 783 783 q 938 732 872 783 m 649 238 q 628 306 654 276 q 563 335 601 335 l 393 335 l 379 232 q 403 133 371 178 q 490 81 436 88 q 510 79 500 79 q 597 112 560 79 q 642 193 635 144 q 649 238 649 238 m 690 531 q 665 629 699 585 q 578 682 632 674 q 558 683 568 683 q 472 651 510 683 q 428 569 435 618 l 407 428 l 601 428 q 657 448 633 428 q 686 499 681 468 l 690 531 z "},"C":{"ha":1031,"x_min":14,"x_max":1026,"o":"m 672 518 l 675 532 q 644 638 683 592 q 543 683 604 683 q 456 651 493 683 q 411 569 418 618 l 363 231 q 394 125 354 171 q 494 79 433 79 q 581 112 543 79 q 626 193 619 144 l 633 243 l 979 243 q 881 74 960 142 q 685 0 796 0 l 275 0 q 88 85 163 0 q 31 283 14 171 l 65 526 q 165 710 81 636 q 363 783 250 783 l 771 783 q 958 697 885 783 q 1018 518 1025 621 l 672 518 z "},"D":{"ha":1063,"x_min":15,"x_max":1050,"o":"m 788 783 q 974 698 900 783 q 1032 500 1049 613 l 997 257 q 897 74 982 147 q 700 0 813 0 l 126 0 q 47 36 79 0 q 22 119 15 72 l 118 783 l 788 783 m 690 532 q 660 638 700 592 q 560 683 619 683 q 472 651 510 683 q 428 569 435 618 l 379 231 q 410 125 371 171 q 511 79 450 79 q 597 112 560 79 q 642 193 635 144 l 690 532 z "},"E":{"ha":1031,"x_min":19,"x_max":1024,"o":"m 672 518 l 674 529 q 663 610 681 574 q 614 663 646 643 q 544 683 582 683 q 456 651 494 685 q 411 567 418 617 l 390 428 l 606 428 q 640 412 626 428 q 651 375 654 396 q 636 346 649 357 q 606 335 624 335 l 378 335 l 363 233 q 375 153 357 189 q 424 99 392 118 q 492 79 456 79 q 581 112 543 78 q 626 196 619 146 l 633 243 l 979 243 q 881 74 960 142 q 685 0 796 0 l 279 0 q 124 51 190 0 q 46 155 71 93 q 31 283 21 217 l 65 526 q 165 710 81 636 q 363 783 250 783 l 767 783 q 926 729 858 783 q 998 635 974 690 q 1018 518 1022 579 l 672 518 z "},"F":{"ha":1039,"x_min":15,"x_max":1078,"o":"m 118 783 l 1078 783 l 1064 693 q 999 573 1054 621 q 871 525 944 525 l 696 525 l 700 550 q 688 631 706 594 q 639 684 671 664 q 571 704 607 704 q 568 704 569 704 q 481 670 518 704 q 436 586 443 636 q 425 510 432 561 q 414 435 418 458 l 661 435 q 696 419 682 435 q 707 382 710 403 l 707 381 q 692 352 704 364 q 661 340 679 340 l 400 340 l 365 90 q 330 26 360 51 q 261 0 300 0 l 129 0 q 46 39 76 0 q 22 119 17 74 l 118 783 z "},"G":{"ha":1043,"x_min":14,"x_max":1026,"o":"m 672 518 l 675 532 q 644 638 683 592 q 543 683 604 683 q 456 651 493 683 q 411 569 418 618 l 363 231 q 394 125 354 171 q 494 79 433 79 q 581 112 543 79 q 626 193 619 144 l 646 335 l 554 335 l 536 206 q 522 180 533 190 q 494 169 510 169 q 463 184 475 169 q 453 218 450 199 l 482 428 l 1006 428 l 979 243 q 881 74 960 142 q 685 0 796 0 l 275 0 q 88 85 163 0 q 31 283 14 171 l 65 526 q 165 710 81 636 q 363 783 250 783 l 771 783 q 958 697 885 783 q 1018 518 1025 621 l 672 518 z "},"H":{"ha":1076,"x_min":14,"x_max":1063,"o":"m 951 783 q 1030 747 999 783 q 1054 664 1061 711 l 972 90 q 937 26 967 51 q 868 0 907 0 l 733 0 q 655 36 686 0 q 631 119 624 72 l 663 340 l 393 340 l 357 90 q 322 26 351 51 q 254 0 293 0 l 125 0 q 46 36 78 0 q 21 119 14 72 l 104 693 q 139 758 110 732 q 207 783 168 783 l 336 783 q 415 747 383 783 q 440 664 446 711 l 407 435 l 675 435 l 713 693 q 748 758 718 732 q 817 783 778 783 l 951 783 z "},"I":{"ha":472,"x_min":7,"x_max":467,"o":"m 210 783 l 465 783 l 367 90 q 331 26 361 51 q 263 0 301 0 l 7 0 l 107 693 q 142 758 113 732 q 210 783 172 783 z "},"J":{"ha":1038,"x_min":-12,"x_max":1036,"o":"m 460 783 l 1036 783 q 958 246 964 283 q 835 65 935 125 q 806 49 821 57 q 543 0 703 0 l 243 0 q 85 54 151 0 q 12 149 36 93 q -8 264 -12 204 l 338 264 l 336 254 q 349 171 329 208 q 399 119 367 138 q 467 100 431 100 q 533 118 503 100 q 582 167 564 136 q 606 246 599 204 l 660 593 l 432 593 l 460 783 z "},"K":{"ha":1071,"x_min":14,"x_max":1082,"o":"m 1056 783 q 1074 775 1067 783 q 1079 757 1081 767 q 622 514 1050 550 q 629 519 625 515 q 828 754 768 621 q 872 783 840 783 l 1056 783 m 794 500 q 944 424 883 490 q 1006 267 1006 357 q 1003 239 1006 253 l 982 90 q 947 26 976 51 q 878 0 917 0 l 756 0 q 672 39 704 0 q 649 119 643 74 l 665 236 q 649 344 675 294 q 584 415 626 389 q 492 440 542 440 l 414 440 l 364 90 q 328 26 358 51 q 260 0 299 0 l 128 0 q 44 39 75 0 q 21 119 15 74 l 104 693 q 139 758 110 732 q 207 783 168 783 l 339 783 q 422 744 392 783 q 446 664 453 710 l 425 518 l 461 518 q 794 500 628 518 z "},"L":{"ha":1022,"x_min":8,"x_max":999,"o":"m 653 243 l 999 243 q 900 74 979 142 q 704 0 815 0 l 8 0 l 121 783 l 461 783 l 382 231 q 413 125 374 171 q 514 79 453 79 q 600 112 563 79 q 644 193 638 144 l 653 243 z "},"M":{"ha":1682,"x_min":15,"x_max":1664,"o":"m 1403 783 q 1590 698 1515 783 q 1647 500 1664 613 l 1589 90 q 1553 26 1583 51 q 1485 0 1524 0 l 1350 0 q 1271 36 1303 0 q 1246 119 1239 72 l 1306 532 q 1274 638 1314 592 q 1174 683 1235 683 q 1088 651 1125 683 q 1043 569 1050 618 l 974 90 q 938 26 968 51 q 869 0 908 0 l 735 0 q 656 36 688 0 q 632 119 625 72 l 690 532 q 660 638 700 592 q 560 683 619 683 q 472 651 510 683 q 428 569 435 618 l 358 90 q 324 26 353 51 q 256 0 294 0 l 126 0 q 47 36 79 0 q 22 119 15 72 l 118 783 l 1403 783 z "},"N":{"ha":1068,"x_min":15,"x_max":1050,"o":"m 788 783 q 974 698 900 783 q 1032 500 1049 613 l 974 90 q 938 26 968 51 q 869 0 908 0 l 735 0 q 656 36 688 0 q 632 119 625 72 l 690 532 q 660 638 700 592 q 560 683 619 683 q 472 651 510 683 q 428 569 435 618 l 358 90 q 324 26 353 51 q 256 0 294 0 l 126 0 q 47 36 79 0 q 22 119 15 72 l 118 783 l 788 783 z "},"O":{"ha":1046,"x_min":14,"x_max":1033,"o":"m 771 783 q 958 698 885 783 q 1017 500 1032 613 l 982 257 q 881 74 965 147 q 685 0 796 0 l 275 0 q 88 85 163 0 q 31 283 14 171 l 65 526 q 165 710 81 636 q 363 783 250 783 l 771 783 m 675 532 q 644 638 683 592 q 543 683 604 683 q 456 651 493 683 q 411 569 418 618 l 363 231 q 394 125 354 171 q 494 79 433 79 q 581 112 543 79 q 626 193 619 144 l 675 532 z "},"P":{"ha":1050,"x_min":15,"x_max":1054,"o":"m 958 736 q 1031 640 1008 697 q 1044 522 1054 583 q 944 338 1029 411 q 749 265 860 265 l 390 265 l 365 90 q 330 26 360 51 q 261 0 300 0 l 129 0 q 46 39 76 0 q 22 119 17 74 l 118 783 l 815 783 q 958 736 897 783 m 715 565 q 715 593 717 581 q 671 674 707 643 q 588 704 635 704 l 567 704 q 481 672 518 704 q 436 592 443 640 l 400 343 l 572 343 q 656 374 619 343 q 699 453 692 406 l 715 565 z "},"Q":{"ha":1104,"x_min":19,"x_max":1050,"o":"m 1049 25 q 1044 8 1050 15 q 1028 0 1038 0 l 831 0 q 785 92 811 50 q 724 168 758 135 q 676 211 689 201 q 636 242 664 221 q 654 379 636 246 q 675 532 672 513 q 644 638 683 592 q 543 683 604 683 q 456 651 493 683 q 411 569 418 618 l 363 233 q 376 150 357 188 q 425 98 393 117 q 494 79 457 79 q 563 98 532 79 q 611 149 594 117 q 643 122 628 136 q 670 93 658 107 q 692 67 682 79 q 708 43 701 56 q 719 24 715 31 q 728 8 724 17 q 732 0 732 0 l 279 0 q 124 51 190 0 q 46 155 71 93 q 31 283 21 217 l 65 526 q 165 710 81 636 q 363 783 250 783 l 767 783 q 922 732 856 783 q 1001 628 976 690 q 1017 500 1026 567 q 981 253 981 254 q 979 253 981 253 q 978 254 978 254 q 838 292 913 289 q 694 267 763 294 l 656 250 q 936 174 838 232 q 1049 25 1035 115 z "},"R":{"ha":1065,"x_min":15,"x_max":1043,"o":"m 939 732 q 1017 628 992 690 q 1032 500 1042 567 l 1031 486 q 988 411 1024 442 q 908 381 951 381 q 976 353 949 381 q 1001 286 1003 326 l 974 90 q 938 26 968 51 q 869 0 908 0 l 735 0 q 656 36 688 0 q 632 119 625 72 q 649 238 649 238 q 628 306 654 276 q 563 335 601 335 l 393 335 l 358 90 q 324 26 353 51 q 256 0 294 0 l 126 0 q 47 36 79 0 q 22 119 15 72 l 118 783 l 783 783 q 939 732 872 783 m 690 531 q 666 629 699 585 q 579 682 633 674 q 560 683 569 683 q 472 651 510 683 q 428 569 435 618 l 407 428 l 603 428 q 658 448 635 428 q 686 500 682 468 l 690 531 z "},"S":{"ha":1028,"x_min":14,"x_max":1014,"o":"m 663 518 l 664 529 q 651 613 671 575 q 601 665 633 646 q 533 683 569 683 q 446 651 483 683 q 401 569 408 618 q 431 471 393 514 q 524 428 468 428 l 824 428 q 936 377 892 428 q 972 260 981 326 q 871 74 957 147 q 675 0 786 0 l 269 0 q 111 54 178 0 q 38 149 63 93 q 18 264 14 204 l 364 264 l 363 254 q 375 171 356 208 q 425 119 393 138 q 493 100 457 100 q 581 133 543 100 q 625 214 618 165 q 597 313 633 269 q 503 356 560 356 l 225 356 q 106 406 156 356 q 56 526 56 456 q 156 710 71 636 q 353 783 240 783 l 757 783 q 917 729 849 783 q 988 635 964 690 q 1008 518 1013 579 l 663 518 z "},"T":{"ha":819,"x_min":32,"x_max":857,"o":"m 60 783 l 857 783 l 829 593 l 607 593 l 521 0 l 299 0 q 215 39 246 0 q 192 119 186 74 l 260 593 l 32 593 l 60 783 z "},"U":{"ha":1068,"x_min":19,"x_max":1053,"o":"m 942 783 q 1021 747 989 783 q 1046 664 1053 711 l 950 0 l 281 0 q 94 85 168 0 q 36 283 19 171 l 94 693 q 130 758 100 732 q 199 783 160 783 l 333 783 q 412 747 381 783 q 436 664 443 711 l 378 251 q 408 146 368 192 q 508 100 449 100 l 624 100 l 710 693 q 745 758 715 732 q 813 783 775 783 l 942 783 z "},"V":{"ha":971,"x_min":39,"x_max":957,"o":"m 846 783 q 924 747 893 783 q 949 664 956 711 l 854 0 l 851 0 l 850 0 q 825 0 838 0 q 724 7 778 0 q 594 33 671 14 q 434 95 517 51 q 282 204 351 139 q 47 660 96 376 q 71 747 39 710 q 150 783 101 783 l 281 783 q 346 763 324 783 q 381 701 368 743 q 408 610 394 660 q 462 489 422 561 q 564 350 501 417 l 613 694 q 648 758 618 732 q 717 783 678 783 l 846 783 z "},"W":{"ha":1682,"x_min":19,"x_max":1668,"o":"m 1557 783 q 1635 747 1604 783 q 1660 664 1667 711 l 1565 0 l 281 0 q 94 85 168 0 q 36 283 19 171 l 94 693 q 130 758 100 732 q 199 783 160 783 l 333 783 q 412 747 381 783 q 436 664 443 711 l 378 251 q 408 146 368 192 q 508 100 449 100 q 596 133 558 100 q 640 214 633 165 l 710 693 q 744 758 715 732 q 813 783 774 783 l 947 783 q 1027 747 996 783 q 1051 664 1058 711 l 992 251 q 1023 146 983 192 q 1124 100 1063 100 q 1210 133 1172 100 q 1256 214 1249 165 l 1324 693 q 1359 758 1329 732 q 1428 783 1389 783 l 1557 783 z "},"X":{"ha":1046,"x_min":-1,"x_max":1047,"o":"m 419 626 q 458 492 408 550 q 585 435 508 435 l 781 435 q 928 367 869 435 q 974 211 988 300 l 957 90 q 922 26 951 51 q 853 0 892 0 l 721 0 q 638 39 669 0 q 615 119 608 74 l 619 150 q 581 283 631 225 q 453 340 531 340 l 264 340 q 115 408 174 340 q 69 564 57 476 l 89 693 q 124 758 94 732 q 192 783 153 783 l 318 783 q 401 744 369 783 q 425 664 431 710 l 419 626 m 6 119 q 136 264 33 203 q 378 340 239 325 l 342 90 q 307 26 336 51 q 239 0 278 0 l 113 0 q 29 38 61 0 q 6 119 0 74 m 1017 744 q 1039 664 1046 710 q 910 513 1015 576 q 660 435 804 450 l 697 693 q 733 758 703 732 q 801 783 763 783 l 933 783 q 1017 744 985 783 z "},"Y":{"ha":1021,"x_min":28,"x_max":1032,"o":"m 921 783 q 1001 747 969 783 q 1025 664 1032 711 l 999 478 q 915 326 985 386 q 753 265 846 265 l 649 265 l 624 90 q 588 26 618 51 q 519 0 558 0 l 392 0 q 312 36 343 0 q 288 119 281 72 l 308 253 l 224 269 q 82 360 135 286 q 42 525 29 435 l 67 713 q 104 763 76 743 q 165 783 132 783 l 339 783 q 385 763 367 783 q 399 715 403 742 l 378 543 q 422 403 369 464 q 554 343 475 343 l 633 343 l 683 694 q 719 758 689 732 q 788 783 749 783 l 921 783 z "},"Z":{"ha":1063,"x_min":-3,"x_max":1067,"o":"m 386 335 l 371 231 q 403 125 363 171 q 526 81 451 68 q 599 121 569 89 q 635 196 629 153 l 642 243 l 988 243 l 953 0 l -1 0 l 25 190 q 131 379 42 306 q 325 449 215 449 l 671 449 l 683 529 q 671 610 689 574 q 622 663 654 643 q 554 683 590 683 q 465 651 503 685 q 419 567 426 617 l 415 539 l 75 539 l 111 783 l 1065 783 l 1039 593 q 932 404 1022 478 q 739 335 849 335 l 386 335 z "},"[":{"ha":500,"x_min":28,"x_max":504,"o":"m 503 783 l 490 694 l 389 694 q 303 662 340 694 q 257 581 265 629 l 208 242 q 240 135 200 181 q 340 89 279 89 l 404 89 l 390 0 l 289 0 q 102 85 176 0 q 44 283 28 171 l 79 526 q 179 710 94 636 q 376 783 264 783 l 503 783 z "},"\\":{"ha":588,"x_min":75,"x_max":514,"o":"m 319 783 q 388 758 358 783 q 424 693 418 732 l 506 119 q 481 36 513 72 q 403 0 450 0 l 268 0 q 199 26 229 0 q 164 90 169 51 l 82 664 q 106 747 75 711 q 185 783 138 783 l 319 783 z "},"]":{"ha":500,"x_min":-4,"x_max":472,"o":"m 211 783 q 398 698 324 783 q 456 500 472 613 l 421 257 q 320 74 404 147 q 124 0 236 0 l -4 0 l 8 89 l 110 89 q 197 122 160 89 q 242 203 235 154 l 290 542 q 259 649 299 603 q 158 694 219 694 l 96 694 l 108 783 l 211 783 z "},"a":{"ha":1042,"x_min":15,"x_max":1024,"o":"m 328 518 l 1022 518 l 949 0 l 643 0 l 656 90 q 468 0 576 13 l 257 0 q 84 79 153 0 q 31 261 15 158 q 131 445 47 372 q 328 518 215 518 m 660 336 l 675 440 l 503 440 q 420 409 456 440 q 378 331 385 378 l 363 224 q 392 123 354 167 q 488 79 431 79 l 513 79 q 596 110 560 79 q 639 188 632 142 l 660 336 z "},"b":{"ha":1047,"x_min":25,"x_max":1032,"o":"m 790 518 q 963 440 894 518 q 1017 257 1032 361 q 916 74 1000 147 q 719 0 832 0 l 136 0 q 58 36 89 0 q 33 119 26 72 l 115 693 q 151 758 121 732 q 218 783 181 783 l 353 783 q 433 747 401 783 q 457 664 464 711 l 436 518 l 790 518 m 685 294 q 655 396 693 351 q 560 440 617 440 l 535 440 q 451 409 488 440 q 408 331 415 378 l 393 224 q 423 123 385 167 q 519 79 461 79 l 544 79 q 627 110 592 79 q 669 188 663 142 l 685 294 z "},"c":{"ha":1011,"x_min":15,"x_max":988,"o":"m 639 188 l 643 214 l 976 214 q 885 74 950 131 q 689 0 800 0 l 257 0 q 85 79 153 0 q 31 261 17 158 q 131 445 47 372 q 328 518 215 518 l 760 518 q 932 440 864 518 q 988 304 982 382 l 656 304 q 624 396 658 357 q 528 440 586 440 l 503 440 q 420 409 456 440 q 378 331 385 378 l 363 224 q 392 123 354 167 q 488 79 431 79 l 513 79 q 596 110 560 79 q 639 188 632 142 z "},"d":{"ha":1050,"x_min":15,"x_max":1061,"o":"m 950 783 q 1028 747 997 783 q 1053 664 1060 711 l 971 90 q 935 26 965 51 q 867 0 906 0 l 257 0 q 85 79 153 0 q 31 261 17 158 q 131 445 47 372 q 328 518 215 518 l 686 518 l 711 693 q 747 758 717 732 q 815 783 776 783 l 950 783 m 654 294 q 624 396 663 351 q 528 440 586 440 l 503 440 q 420 409 456 440 q 378 331 385 378 l 363 224 q 392 123 354 167 q 488 79 431 79 l 513 79 q 596 110 560 79 q 639 188 632 142 l 654 294 z "},"e":{"ha":1014,"x_min":15,"x_max":1001,"o":"m 760 518 q 932 440 864 518 q 985 257 1000 361 q 976 214 982 236 l 551 214 l 549 201 q 537 178 547 188 q 513 169 526 169 l 488 169 q 460 182 471 169 q 451 211 450 194 l 467 318 q 480 340 469 331 q 503 349 490 349 l 528 349 q 556 336 544 349 q 564 307 567 324 l 564 304 l 656 304 q 625 396 658 357 q 528 440 586 440 l 503 440 q 420 409 456 440 q 378 331 385 378 l 361 214 q 392 122 358 163 q 488 79 431 79 l 513 79 q 608 124 571 79 l 931 124 q 885 74 911 96 q 689 0 800 0 l 257 0 q 85 79 153 0 q 31 261 17 158 q 131 445 47 372 q 328 518 215 518 l 760 518 z "},"f":{"ha":658,"x_min":25,"x_max":1053,"o":"m 956 731 q 1028 639 1003 693 q 1050 525 1053 585 l 706 525 l 708 550 q 697 631 715 594 q 648 684 679 664 q 579 704 617 704 q 491 672 529 706 q 446 588 453 638 q 410 340 428 460 l 597 340 q 633 324 618 340 q 643 288 647 308 q 628 259 642 271 q 597 247 615 247 l 397 247 l 374 90 q 339 26 368 51 q 271 0 310 0 l 136 0 q 58 35 90 0 q 33 122 25 71 l 72 394 l 83 472 q 205 695 103 607 q 442 783 307 783 l 799 783 q 956 731 889 783 z "},"g":{"ha":1042,"x_min":15,"x_max":1024,"o":"m 328 521 l 1022 521 l 944 -22 q 851 -187 928 -121 q 668 -257 772 -257 l 472 -257 q 429 -224 438 -257 q 444 -186 419 -193 q 449 -185 447 -186 q 575 -123 519 -176 q 640 1 631 -69 l 257 1 q 84 81 153 1 q 31 263 15 160 q 131 447 47 374 q 328 521 215 521 m 654 297 q 645 365 658 332 q 603 418 632 397 q 525 442 569 442 l 503 442 q 420 410 456 442 q 378 333 385 379 l 363 226 q 371 159 357 192 q 414 104 385 126 q 490 81 447 81 l 513 81 q 596 112 560 81 q 639 190 632 143 l 654 297 z "},"h":{"ha":1056,"x_min":25,"x_max":1031,"o":"m 772 518 q 958 434 885 518 q 1014 239 1031 350 l 993 90 q 958 26 988 51 q 889 0 928 0 l 764 0 q 685 36 717 0 q 661 119 654 72 l 678 239 q 636 379 689 318 q 503 440 583 440 l 425 440 l 375 90 q 340 26 369 51 q 271 0 310 0 l 136 0 q 58 36 89 0 q 33 119 26 72 l 115 693 q 151 758 121 732 q 218 783 181 783 l 353 783 q 433 747 401 783 q 457 664 464 711 l 436 518 l 772 518 z "},"i":{"ha":439,"x_min":21,"x_max":446,"o":"m 190 593 l 446 593 q 409 533 438 557 q 343 510 381 510 l 88 510 q 124 569 96 546 q 190 593 153 593 m 297 425 q 377 389 346 425 q 401 306 408 353 l 371 90 q 335 26 365 51 q 267 0 306 0 l 132 0 q 53 36 85 0 q 29 119 22 72 l 60 335 q 94 399 65 374 q 163 425 124 425 l 297 425 z "},"j":{"ha":456,"x_min":-178,"x_max":446,"o":"m 444 593 q 408 533 438 557 q 342 510 379 510 l 86 510 q 124 569 94 546 q 189 593 153 593 l 444 593 m 314 438 q 394 401 363 438 q 418 318 425 365 q 372 0 375 21 q 219 -197 346 -136 q -43 -246 115 -246 l -178 -246 q -47 -149 -100 -215 q 18 0 7 -83 l 33 103 l 32 103 l 67 347 q 102 412 72 386 q 171 438 132 438 l 314 438 z "},"k":{"ha":1047,"x_min":24,"x_max":1051,"o":"m 528 250 q 695 238 621 250 q 815 209 769 226 q 893 165 860 192 q 941 118 926 139 q 964 72 956 97 q 972 35 972 46 q 972 11 972 24 q 972 8 972 10 q 965 0 972 0 l 714 0 q 661 16 685 0 q 628 58 638 32 q 597 110 617 86 q 467 171 546 169 l 386 174 l 374 83 q 341 24 368 47 q 278 0 314 0 l 136 0 q 75 19 100 0 q 33 119 24 58 l 117 700 q 149 760 121 736 q 213 783 176 783 l 353 783 q 446 728 415 783 q 457 664 463 699 l 397 250 l 528 250 m 1011 518 q 1038 508 1026 518 q 1051 485 1049 499 q 901 324 1033 390 q 583 251 768 258 q 619 268 603 256 q 813 518 754 364 l 1011 518 z "},"l":{"ha":454,"x_min":25,"x_max":464,"o":"m 353 783 q 433 747 401 783 q 457 664 464 711 l 375 90 q 340 26 369 51 q 271 0 310 0 l 136 0 q 58 36 89 0 q 33 119 26 72 l 115 693 q 151 758 121 732 q 218 783 181 783 l 353 783 z "},"m":{"ha":1672,"x_min":25,"x_max":1647,"o":"m 1389 518 q 1574 434 1501 518 q 1631 239 1647 350 l 1610 90 q 1574 26 1604 51 q 1506 0 1544 0 l 1381 0 q 1302 36 1333 0 q 1278 119 1271 72 l 1294 239 q 1254 377 1306 317 q 1124 439 1203 438 l 1043 442 l 993 90 q 958 26 988 51 q 889 0 928 0 l 764 0 q 685 36 717 0 q 661 119 654 72 l 678 239 q 636 379 689 318 q 503 440 583 440 l 425 440 l 375 90 q 340 26 369 51 q 271 0 310 0 l 136 0 q 58 36 89 0 q 33 119 26 72 l 90 518 l 1389 518 z "},"n":{"ha":1056,"x_min":25,"x_max":1031,"o":"m 772 518 q 958 434 885 518 q 1014 239 1031 350 l 993 90 q 958 26 988 51 q 889 0 928 0 l 764 0 q 685 36 717 0 q 661 119 654 72 l 678 239 q 636 379 689 318 q 503 440 583 440 l 425 440 l 375 90 q 340 26 369 51 q 271 0 310 0 l 136 0 q 58 36 89 0 q 33 119 26 72 l 90 518 l 772 518 z "},"o":{"ha":1015,"x_min":15,"x_max":1001,"o":"m 760 518 q 932 440 864 518 q 985 257 1000 361 q 885 74 969 147 q 689 0 800 0 l 257 0 q 85 79 153 0 q 31 261 17 158 q 131 445 47 372 q 328 518 215 518 l 760 518 m 654 294 q 624 396 663 351 q 528 440 586 440 l 503 440 q 420 409 456 440 q 378 331 385 378 l 363 224 q 392 123 354 167 q 488 79 431 79 l 513 79 q 596 110 560 79 q 639 188 632 142 l 654 294 z "},"p":{"ha":1050,"x_min":-10,"x_max":1035,"o":"m 793 519 q 966 440 897 519 q 1019 258 1035 361 q 919 74 1004 147 q 722 1 835 1 l 364 1 l 339 -174 q 304 -238 333 -212 q 236 -264 275 -264 l 101 -264 q 22 -228 53 -264 q -3 -144 -10 -192 l 79 429 q 115 494 85 468 q 183 519 144 519 l 793 519 m 689 296 q 659 397 697 353 q 563 440 621 440 l 538 440 q 454 409 490 440 q 411 332 418 378 l 396 225 q 426 124 388 168 q 522 79 464 79 l 547 79 q 631 110 594 79 q 674 189 667 142 l 689 296 z "},"q":{"ha":1049,"x_min":15,"x_max":1022,"o":"m 911 519 q 990 483 958 519 q 1015 400 1021 447 l 932 -174 q 897 -238 926 -212 q 829 -264 867 -264 l 694 -264 q 615 -228 646 -264 q 590 -144 583 -192 l 611 1 l 257 1 q 85 80 153 1 q 31 263 17 158 q 131 446 47 372 q 328 519 215 519 l 911 519 m 654 296 q 624 397 663 353 q 528 440 586 440 l 503 440 q 420 409 456 440 q 378 332 385 378 l 363 225 q 392 124 354 168 q 488 79 431 79 l 513 79 q 596 110 560 79 q 639 189 632 142 l 654 296 z "},"r":{"ha":1015,"x_min":11,"x_max":1003,"o":"m 939 433 q 999 260 1003 358 l 654 260 l 658 288 q 626 394 667 349 q 526 440 586 440 q 439 408 476 440 q 394 325 401 375 l 361 90 q 326 26 356 51 q 257 0 296 0 l 122 0 q 44 36 75 0 q 19 119 13 72 l 32 208 q 153 431 50 342 q 356 517 240 506 l 342 428 q 533 518 422 507 l 751 518 q 939 433 864 518 z "},"s":{"ha":964,"x_min":-1,"x_max":965,"o":"m 933 458 q 949 390 964 431 q 890 350 933 350 l 669 350 q 644 396 661 376 q 549 440 606 440 l 524 440 q 440 409 476 440 q 397 331 404 378 l 389 271 l 468 271 l 475 319 q 492 349 478 338 q 524 361 506 361 l 549 361 q 585 344 571 361 q 596 306 599 328 l 589 260 l 914 260 q 914 258 914 258 q 914 257 914 258 q 813 74 897 147 q 617 0 728 0 l 185 0 q 31 60 96 0 q 15 128 0 89 q 75 168 31 168 l 294 168 q 319 122 303 143 q 415 79 358 79 l 442 79 q 524 110 488 79 q 567 188 560 142 l 575 247 l 489 247 l 482 199 q 466 169 479 181 q 435 157 453 157 l 415 157 q 380 174 394 157 q 368 213 365 190 l 375 260 l 50 260 q 50 261 50 261 q 151 445 67 372 q 347 518 236 518 l 779 518 q 933 458 868 518 z "},"t":{"ha":679,"x_min":32,"x_max":686,"o":"m 674 504 q 682 468 686 489 q 666 440 679 451 q 635 429 653 429 l 526 429 l 510 310 q 563 142 497 214 q 622 94 588 113 q 585 27 617 54 q 514 0 554 0 l 443 0 q 231 97 315 0 q 165 321 146 194 l 179 425 l 79 429 q 46 447 60 431 q 36 485 32 464 q 52 513 39 501 q 83 524 65 524 l 194 524 l 218 693 q 253 758 224 732 q 322 783 283 783 l 333 783 q 397 663 356 715 q 485 582 438 610 q 570 540 532 554 q 638 524 608 525 q 674 504 660 521 z "},"u":{"ha":1056,"x_min":24,"x_max":1029,"o":"m 918 518 q 998 482 967 518 q 1022 399 1029 446 l 965 0 l 282 0 q 98 84 171 0 q 40 279 25 168 l 63 429 q 97 492 68 467 q 165 518 126 518 l 290 518 q 370 482 339 518 q 394 399 401 446 l 378 281 q 418 140 365 200 q 551 79 471 79 l 631 79 l 681 429 q 716 492 686 467 q 783 518 746 518 l 918 518 z "},"v":{"ha":976,"x_min":33,"x_max":951,"o":"m 840 518 q 919 482 888 518 q 943 399 950 446 l 886 0 l 511 0 q 206 110 339 0 q 43 390 72 221 q 42 393 43 390 q 42 397 42 396 q 63 479 33 443 q 147 518 94 518 l 275 518 q 341 494 313 518 q 378 435 369 471 q 378 433 378 435 q 452 275 396 342 q 571 175 508 208 l 607 429 q 642 492 613 467 q 711 518 672 518 l 840 518 z "},"w":{"ha":1672,"x_min":24,"x_max":1646,"o":"m 1535 518 q 1615 482 1583 518 q 1639 399 1646 446 l 1582 0 l 282 0 q 98 84 171 0 q 40 279 25 168 l 63 429 q 97 492 68 467 q 165 518 126 518 l 290 518 q 370 482 339 518 q 394 399 401 446 l 378 281 q 417 141 365 201 q 547 79 468 81 l 628 78 l 679 429 q 714 492 685 467 q 782 518 743 518 l 907 518 q 987 482 956 518 q 1011 399 1018 446 l 994 281 q 1035 140 982 200 q 1168 79 1088 79 l 1247 79 l 1297 429 q 1333 492 1303 467 q 1400 518 1363 518 l 1535 518 z "},"x":{"ha":1021,"x_min":-1,"x_max":1024,"o":"m 1024 518 q 891 376 994 436 q 649 301 788 317 l 769 301 q 917 234 858 301 q 963 79 975 167 l 957 44 q 940 13 954 25 q 906 0 925 0 l 660 0 q 624 15 639 0 q 607 50 608 29 q 590 119 606 89 q 553 166 574 150 q 508 192 533 182 q 467 206 483 203 q 442 208 451 208 l 365 208 l 342 42 q 326 12 339 24 q 293 0 313 0 l -1 0 q 132 136 32 79 q 365 208 232 193 l 251 208 q 104 276 163 208 q 58 432 46 343 l 64 474 q 81 506 67 493 q 115 518 96 518 l 356 518 q 392 503 376 518 q 407 467 407 489 q 426 389 408 422 q 466 340 444 356 q 515 315 488 324 q 554 303 542 306 q 572 301 567 301 l 649 301 l 674 476 q 690 506 676 494 q 722 518 703 518 l 1024 518 z "},"y":{"ha":1049,"x_min":25,"x_max":1022,"o":"m 911 518 q 991 482 960 518 q 1015 399 1022 446 l 954 -24 q 861 -190 938 -124 q 678 -258 782 -258 l 482 -258 q 448 -243 461 -258 q 438 -207 435 -228 l 440 -189 q 578 -131 517 -186 q 650 0 639 -76 l 467 0 l 267 0 q 94 78 163 0 q 40 260 26 157 l 65 447 q 103 499 75 479 q 164 518 131 518 l 338 518 q 383 498 365 518 q 399 450 401 478 l 378 278 q 421 139 368 199 q 554 79 474 79 l 633 79 l 683 429 q 718 492 689 467 q 786 518 747 518 l 911 518 z "},"z":{"ha":1017,"x_min":-6,"x_max":1025,"o":"m 550 201 q 538 178 549 188 q 514 169 528 169 l 368 169 q 422 99 382 124 q 492 79 453 79 l 514 79 q 590 104 557 79 q 636 169 624 129 l 960 169 q 886 74 933 114 q 690 0 801 0 l -6 0 q 94 183 11 110 q 289 256 178 256 l 460 256 l 469 318 q 481 340 471 331 q 504 349 492 349 l 651 349 q 597 421 638 394 q 528 440 567 440 l 504 440 q 428 415 463 440 q 383 349 394 389 l 60 349 q 133 446 86 404 q 329 518 218 518 l 1025 518 q 924 335 1008 408 q 729 263 840 263 l 560 263 l 550 201 z "}," ":{"ha":515,"x_min":0,"x_max":0,"o":""},"­":{"ha":0,"x_min":0,"x_max":0,"o":""},"‘":{"ha":415,"x_min":61,"x_max":418,"o":"m 311 779 q 388 744 357 779 q 411 664 418 710 q 374 597 406 624 q 301 569 343 569 l 168 569 q 92 604 122 569 q 68 685 61 639 q 91 738 72 715 q 138 772 110 761 q 267 868 206 810 l 254 779 l 311 779 z "},"’":{"ha":414,"x_min":61,"x_max":419,"o":"m 313 785 q 388 750 358 785 q 411 669 418 715 q 388 616 407 639 q 342 582 369 593 q 214 486 274 544 l 226 575 l 168 575 q 92 610 122 575 q 68 690 63 644 q 106 758 75 731 q 178 785 138 785 l 313 785 z "},"“":{"ha":574,"x_min":61,"x_max":576,"o":"m 168 569 q 92 604 122 569 q 68 685 61 639 q 91 738 72 715 q 138 772 110 761 q 267 868 206 810 l 254 779 l 308 779 q 424 868 371 815 l 411 779 l 469 779 q 545 744 515 779 q 569 664 575 710 q 533 597 564 624 q 460 569 501 569 l 326 569 q 314 571 319 569 q 301 569 307 569 l 168 569 z "},"”":{"ha":572,"x_min":61,"x_max":576,"o":"m 469 785 q 547 750 517 785 q 569 669 576 715 q 547 616 565 639 q 500 582 528 593 q 371 486 432 544 l 385 575 l 329 575 q 214 486 268 539 l 226 575 l 168 575 q 92 610 122 575 q 68 690 63 644 q 106 758 75 731 q 178 785 138 785 l 313 785 q 324 785 318 785 q 336 785 331 785 l 469 785 z "},"":{"ha":996,"x_min":15,"x_max":981,"o":"m 957 168 q 900 88 935 122 q 689 0 815 0 l 257 0 q 84 79 153 0 q 31 261 15 158 q 131 445 47 372 q 328 518 215 518 l 760 518 q 928 443 860 518 q 979 350 965 403 l 650 350 q 625 396 642 376 q 528 440 586 440 l 503 440 q 420 409 456 440 q 378 331 385 378 l 363 224 q 392 123 354 167 q 488 79 431 79 l 513 79 q 588 104 554 79 q 635 168 622 129 l 957 168 z "},"":{"ha":964,"x_min":-1,"x_max":965,"o":"m 933 458 q 949 390 964 431 q 890 350 933 350 l 669 350 q 644 396 661 376 q 549 440 606 440 l 524 440 q 419 386 458 440 l 450 386 q 540 349 503 386 q 576 260 576 313 l 50 260 q 50 261 50 261 q 151 445 67 372 q 347 518 236 518 l 779 518 q 933 458 868 518 m 442 79 q 524 110 488 79 q 567 188 560 142 l 576 260 l 914 260 q 914 258 914 258 q 914 257 914 258 q 813 74 897 147 q 617 0 728 0 l 185 0 q 31 60 96 0 q 15 128 0 89 q 75 168 31 168 l 294 168 q 319 122 303 143 q 415 79 358 79 l 442 79 z "},"":{"ha":1019,"x_min":-3,"x_max":1022,"o":"m 897 518 l 1022 518 q 890 376 993 436 q 647 301 786 317 l 768 301 q 915 234 857 301 q 961 79 974 167 q 930 22 956 44 q 869 0 904 0 l 603 0 l 606 17 q 567 151 617 93 q 440 208 517 208 l 364 208 q 283 59 351 118 q 124 0 215 0 l -3 0 q 131 136 31 79 q 364 208 231 193 l 250 208 q 103 276 161 208 q 57 432 44 343 q 91 494 63 469 q 157 518 119 518 l 410 518 l 406 493 q 444 360 394 418 q 571 301 494 301 l 647 301 q 731 457 660 396 q 897 518 803 518 z "},"":{"ha":1014,"x_min":15,"x_max":1001,"o":"m 760 518 q 932 440 864 518 q 985 257 1000 361 q 976 214 982 236 l 361 214 q 392 122 358 163 q 488 79 431 79 l 513 79 q 608 124 571 79 l 931 124 q 885 74 911 96 q 689 0 800 0 l 257 0 q 84 79 153 0 q 31 261 15 158 q 131 445 47 372 q 328 518 215 518 l 760 518 m 656 304 q 625 396 658 357 q 528 440 586 440 l 503 440 q 420 409 456 440 q 378 331 385 378 l 374 304 l 656 304 z "},"":{"ha":1075,"x_min":28,"x_max":1047,"o":"m 785 783 q 972 698 899 783 q 1031 500 1046 613 l 996 257 q 894 74 979 147 q 699 0 810 0 l 289 0 q 102 85 176 0 q 44 283 28 171 l 79 526 q 179 710 94 636 q 376 783 264 783 l 785 783 m 689 532 q 658 638 697 592 q 557 683 618 683 q 469 651 507 683 q 425 569 432 618 l 404 428 l 496 428 l 515 557 q 529 583 517 572 q 557 593 542 593 q 589 578 576 593 q 599 544 601 564 l 550 206 q 535 180 547 190 q 508 169 524 169 q 476 184 489 169 q 467 218 464 199 l 483 335 l 392 335 l 376 231 q 408 125 368 171 q 508 79 447 79 q 595 112 557 79 q 640 193 633 144 l 689 532 z "},"":{"ha":1085,"x_min":10,"x_max":1057,"o":"m 515 169 q 483 184 496 169 q 474 218 471 199 l 490 335 l 399 335 l 383 231 q 414 125 375 171 q 539 81 464 67 q 610 121 581 89 q 647 196 640 153 l 654 243 l 1000 243 l 965 0 l 10 0 l 38 190 q 143 379 54 306 q 338 449 228 449 l 506 449 l 521 554 q 535 582 524 571 q 563 593 547 593 q 595 578 582 593 q 606 544 608 564 l 592 449 l 683 449 l 694 529 q 683 610 701 574 q 634 663 665 643 q 565 683 603 683 q 477 651 515 685 q 432 567 439 617 l 428 539 l 88 539 q 186 710 107 642 q 382 783 271 783 l 882 783 q 982 753 939 783 q 1039 682 1021 725 q 1050 593 1057 639 q 944 404 1033 478 q 750 335 860 335 l 575 335 l 557 207 q 542 181 554 192 q 515 169 531 169 z "},"":{"ha":1068,"x_min":32,"x_max":1035,"o":"m 931 732 q 1010 628 985 690 q 1025 500 1035 567 l 1022 486 q 980 411 1015 442 q 900 381 944 381 q 968 353 942 381 q 994 286 994 326 l 990 257 q 889 74 974 147 q 693 0 804 0 l 288 0 q 129 54 196 0 q 56 149 81 93 q 36 264 32 204 l 382 264 l 381 254 q 393 174 374 210 q 441 119 410 139 q 510 100 472 100 q 598 133 560 99 q 644 217 636 167 l 664 356 l 572 356 l 554 228 q 540 201 551 213 q 513 190 528 190 q 480 205 493 190 q 469 239 467 219 l 486 356 l 449 356 q 414 372 428 356 q 403 408 400 388 q 419 438 406 426 q 449 449 432 449 l 500 449 l 518 576 q 533 603 521 592 q 560 614 544 614 q 592 599 579 614 q 603 565 606 585 l 586 449 l 678 449 l 692 550 q 679 631 699 594 q 631 684 663 664 q 563 704 600 704 q 474 672 513 706 q 428 588 436 638 l 421 539 l 75 539 q 174 710 94 642 q 371 783 258 783 l 775 783 q 931 732 864 783 z "},"":{"ha":1081,"x_min":44,"x_max":1069,"o":"m 685 540 l 686 550 q 672 633 693 596 q 624 685 656 667 q 554 704 592 704 q 468 672 506 704 q 422 590 431 639 l 403 449 l 494 449 l 513 576 q 527 603 515 592 q 554 614 539 614 q 586 599 574 614 q 596 565 599 585 l 579 449 l 917 449 q 984 419 957 449 q 1008 349 1011 389 q 996 256 1006 322 q 896 74 979 146 q 699 0 811 0 l 294 0 q 153 40 213 0 q 70 133 94 79 q 50 243 46 188 l 375 243 l 374 233 q 386 150 367 188 q 436 98 404 117 q 504 79 468 79 q 592 112 554 79 q 636 193 629 144 l 657 335 l 565 335 l 547 214 q 533 188 546 199 q 506 176 521 176 q 472 188 485 176 q 463 218 460 199 l 479 335 l 51 335 l 114 783 l 1068 783 l 1033 540 q 685 540 1032 540 z "},"":{"ha":1072,"x_min":33,"x_max":1036,"o":"m 688 521 l 688 529 q 675 613 694 575 q 626 665 657 646 q 557 683 594 683 q 469 651 507 683 q 425 569 432 618 l 404 428 l 496 428 l 515 557 q 532 584 518 574 q 563 593 546 594 q 591 576 581 590 q 599 543 601 561 l 582 428 l 914 428 q 983 397 956 428 q 1004 324 1011 365 l 996 257 q 894 74 979 147 q 699 0 810 0 l 293 0 q 138 51 204 0 q 60 155 85 93 q 44 283 35 217 l 79 526 q 179 710 94 636 q 376 783 264 783 l 782 783 q 931 736 865 783 q 1009 641 982 699 q 1032 521 1036 583 l 688 521 m 483 335 l 392 335 l 376 231 q 408 125 368 171 q 508 79 447 79 q 595 112 557 79 q 640 193 633 144 l 660 335 l 568 335 l 550 206 q 533 178 547 189 q 501 169 519 167 q 474 187 485 172 q 467 219 464 201 l 483 335 z "},"":{"ha":1074,"x_min":35,"x_max":1040,"o":"m 936 732 q 1015 628 990 690 q 1031 500 1040 567 l 1028 486 q 985 411 1021 442 q 906 381 950 381 q 974 353 947 381 q 1000 286 1000 326 l 996 257 q 894 74 979 147 q 699 0 810 0 l 293 0 q 139 50 206 0 q 60 151 86 90 q 43 276 35 213 q 87 351 51 321 q 165 381 122 381 q 97 408 124 381 q 72 478 71 436 l 79 526 q 179 710 94 636 q 376 783 264 783 l 781 783 q 936 732 869 783 m 640 193 l 660 335 l 568 335 l 550 206 q 535 180 547 190 q 508 169 524 169 q 501 169 506 169 q 474 187 485 172 q 467 219 464 201 l 483 335 l 392 335 l 376 232 q 401 133 368 178 q 489 81 435 88 q 508 79 499 79 q 595 112 557 79 q 640 193 633 144 m 689 531 q 663 629 696 585 q 576 682 631 674 q 557 683 567 683 q 469 651 507 683 q 425 569 432 618 l 404 428 l 496 428 l 515 557 q 529 583 517 572 q 557 593 542 593 q 563 593 560 593 q 591 576 581 590 q 599 543 601 561 l 582 428 l 674 428 l 689 531 z "},"":{"ha":1072,"x_min":38,"x_max":1038,"o":"m 933 732 q 1011 628 986 690 q 1028 500 1036 567 l 993 257 q 892 74 976 147 q 696 0 807 0 l 290 0 q 135 51 201 0 q 39 240 42 124 l 375 240 l 374 233 q 388 150 368 188 q 436 98 404 117 q 506 79 468 79 q 592 112 554 79 q 638 193 631 144 l 657 335 l 565 335 l 547 206 q 531 178 544 189 q 499 169 517 167 q 472 187 482 172 q 464 219 461 201 l 481 335 l 154 335 q 85 366 113 335 q 64 439 57 397 l 76 526 q 176 710 92 636 q 374 783 261 783 l 778 783 q 933 732 867 783 m 686 532 q 655 638 694 592 q 554 683 615 683 q 467 651 504 683 q 422 569 429 618 l 401 428 l 493 428 l 513 557 q 528 584 514 574 q 560 593 543 594 q 588 576 578 590 q 596 543 599 561 l 579 428 l 671 428 l 686 532 z "},"":{"ha":1069,"x_min":15,"x_max":1078,"o":"m 894 425 q 974 389 943 425 q 999 306 1006 353 l 968 90 q 933 26 963 51 q 864 0 903 0 l 729 0 q 651 36 682 0 q 625 119 619 72 l 657 335 q 692 399 663 374 q 760 425 721 425 l 894 425 m 118 783 l 1078 783 l 1064 693 q 999 573 1054 621 q 871 525 944 525 l 696 525 l 700 550 q 688 631 706 594 q 639 684 671 664 q 571 704 607 704 q 568 704 569 704 q 481 670 518 704 q 436 586 443 636 q 414 435 415 446 l 596 435 q 631 419 617 435 q 642 382 644 403 l 640 381 q 626 352 639 364 q 596 340 613 340 l 400 340 l 365 90 q 330 26 360 51 q 261 0 300 0 l 129 0 q 46 38 76 0 q 22 119 17 74 l 118 783 z "},"ﬁ":{"ha":1060,"x_min":25,"x_max":1050,"o":"m 1043 596 q 1033 547 1050 569 q 988 525 1015 525 l 731 525 q 714 533 721 525 q 708 550 707 540 q 697 631 715 594 q 648 684 679 664 q 579 704 617 704 q 491 672 529 706 q 446 586 453 638 q 410 340 425 447 l 597 340 q 633 324 619 340 q 643 288 647 308 q 627 258 640 269 q 596 247 614 247 l 397 247 l 374 90 q 339 26 368 51 q 271 0 310 0 l 136 0 q 58 35 90 0 q 33 122 25 71 l 72 394 l 83 472 q 205 695 103 607 q 442 783 307 783 l 799 783 q 956 731 889 783 q 1043 596 1022 678 m 919 440 q 999 404 967 440 q 1024 319 1031 368 l 992 104 q 957 41 986 67 q 889 15 928 15 l 754 15 q 674 51 706 15 q 650 135 643 88 l 682 350 q 716 415 686 389 q 785 440 746 440 l 919 440 z "}}}
